# Blender v2.92.0 OBJ File: ''
# www.blender.org
mtllib gummybear_new_lower.mtl
o pCube4_pCube4Mesh
v 0.019335 0.058529 0.201017
v -0.015357 0.117762 0.212576
v 0.015808 0.114401 0.211578
v -0.002184 0.078879 0.203823
v 0.005214 0.076875 0.205168
v 0.019720 0.077288 0.200943
v -0.019183 0.072161 0.199857
v 0.006099 0.072003 0.203103
v -0.014287 0.093367 0.206434
v -0.004283 0.090259 0.207857
v 0.001968 0.091716 0.208370
v -0.001905 0.093112 0.213883
v -0.016768 0.115250 0.189031
v 0.000626 0.056365 0.193419
v 0.013047 0.118415 0.212651
v -0.012901 0.135570 0.197843
v 0.012876 0.135570 0.197844
v -0.003041 0.058697 0.200199
v -0.000098 0.135905 0.195423
v -0.009751 0.076105 0.204140
v -0.019693 0.077100 0.200845
v -0.015961 0.060616 0.212396
v -0.011293 0.060485 0.213199
v -0.010367 0.064246 0.214876
v 0.008625 0.064098 0.214166
v -0.010323 0.079339 0.215807
v -0.007260 0.078667 0.214463
v 0.007149 0.080452 0.214960
v 0.010129 0.078843 0.215301
v 0.019130 0.072235 0.199747
v 0.020206 0.083424 0.180557
v -0.020938 0.068067 0.180187
v 0.000410 0.094596 0.214082
v -0.000032 0.118890 0.210179
v -0.015215 0.056133 0.181949
v -0.012910 0.056376 0.200028
v 0.017181 0.096164 0.202470
v -0.000078 0.096876 0.216983
v -0.013429 0.113737 0.185059
v -0.012076 0.108524 0.213200
v -0.016766 0.104175 0.202109
v 0.016226 0.106714 0.206053
v -0.011305 0.136412 0.194195
v -0.016638 0.131914 0.194817
v 0.016423 0.132598 0.194359
v 0.012653 0.093301 0.207506
v 0.009605 0.099812 0.212468
v 0.010760 0.136443 0.194148
v 0.013264 0.113851 0.184983
v 0.014727 0.056007 0.180962
v 0.012072 0.056056 0.195595
v 0.003057 0.060187 0.201994
v 0.020387 0.063634 0.179662
v 0.015030 0.060702 0.177465
v -0.015572 0.058959 0.177832
v -0.019998 0.060236 0.199958
v 0.016557 0.064197 0.212507
v -0.003946 0.071385 0.203345
v 0.011622 0.081007 0.178178
v -0.016460 0.081422 0.178455
v 0.016788 0.115854 0.189240
v 0.012058 0.059571 0.212391
vt 0.590572 0.677149
vt 0.415391 0.482460
vt 0.583113 0.482380
vt 0.407243 0.759407
vt 0.406205 0.677364
vt 0.567407 0.750745
vt 0.491928 0.015284
vt 0.434663 0.260370
vt 0.387735 0.005156
vt 0.485001 0.271483
vt 0.499639 0.483718
vt 0.401864 0.450506
vt 0.400242 0.277849
vt 0.577469 0.817318
vt 0.418290 0.825893
vt 0.416852 0.779742
vt 0.422537 0.965841
vt 0.494816 0.937975
vt 0.385291 0.961057
vt 0.479224 0.984043
vt 0.525448 0.988132
vt 0.566036 0.948420
vt 0.648632 0.009012
vt 0.802060 0.141163
vt 0.642421 0.225802
vt 0.328882 0.121904
vt 0.515507 1.000000
vt 0.406915 0.994040
vt 0.455679 1.000000
vt 0.491082 1.000000
vt 0.497566 0.237366
vt 0.376661 0.322987
vt 0.377258 0.436267
vt 0.384376 0.461987
vt 0.611112 0.282931
vt 0.622687 0.445980
vt 0.610806 0.469082
vt 0.618151 0.277554
vt 0.597877 0.450490
vt 0.593628 0.275076
vt 0.578894 0.766557
vt 0.583660 0.997507
vt 0.599820 0.012076
vt 0.501731 0.090315
vt 0.578690 0.199911
vt 0.604851 0.967328
vt 0.581807 0.998208
vt 0.427137 0.999121
vt 0.390058 0.980719
vt 0.391105 0.978503
vt 0.443849 0.999286
vt 0.466290 1.000000
vt 0.548588 0.999555
vt 0.558930 0.999474
vt 0.609122 0.978384
vt 0.606874 0.986118
vt 0.618209 0.795579
vt 0.379549 0.814888
vt 0.436440 0.999978
vt 0.395159 0.997960
vt 0.424446 0.999454
vt 0.605815 0.999459
vt 0.560593 0.999991
vt 0.618570 0.810670
vt 0.558821 1.000000
vt 0.624364 0.804975
vt 0.617681 0.969347
vt 0.376108 0.797517
vt 0.376893 0.950662
vt 0.402692 0.999874
vt 0.430916 0.999998
vt 0.587555 0.999944
vn -0.0025 0.3757 -0.9267
vn -0.0067 0.2008 -0.9796
vn -0.0036 0.2031 -0.9792
vn -0.1490 -0.7584 0.6344
vn -0.4855 -0.0466 0.8730
vn -0.6854 0.0014 0.7281
vn -0.0026 0.4530 0.8915
vn 0.0001 0.8331 0.5531
vn -0.3858 0.8183 0.4261
vn -0.5866 0.2449 0.7720
vn -0.2379 0.8601 -0.4511
vn 0.3554 -0.8487 -0.3915
vn -0.4532 -0.8547 -0.2532
vn -0.4311 -0.4647 -0.7734
vn -0.1532 -0.9722 0.1769
vn -0.0117 -0.9879 0.1542
vn -0.8744 -0.4592 0.1561
vn 0.2613 -0.7655 0.5880
vn -0.4883 -0.5149 0.7045
vn 0.0944 -0.9899 0.1057
vn 0.9254 0.0529 0.3751
vn 0.9239 0.1552 -0.3496
vn 0.9494 -0.0908 0.3005
vn -0.9710 0.0199 0.2382
vn -0.1171 -0.5883 0.8001
vn 0.1257 0.1107 0.9859
vn 0.0227 -0.3158 0.9485
vn -0.9220 0.1531 -0.3555
vn -0.8600 0.4382 -0.2614
vn 0.7281 0.0555 0.6832
vn 0.8238 0.4852 -0.2929
vn -0.3624 0.2769 -0.8899
vn 0.3379 0.2892 -0.8956
vn 0.3916 0.8109 0.4349
vn 0.2498 0.2318 0.9401
vn 0.1815 0.8731 -0.4525
vn 0.2580 -0.3108 -0.9148
vn 0.5690 0.0422 0.8212
vn 0.3898 -0.6279 0.6736
vn 0.5667 -0.2675 0.7793
vn 0.7740 -0.6032 0.1922
vn 0.0399 -0.7394 0.6720
vn -0.0723 -0.7304 0.6791
vn -0.8791 -0.1531 0.4513
vn -0.8671 0.0694 0.4933
vn 0.1619 0.0651 0.9846
vn 0.1994 -0.3475 0.9162
vn -0.0935 0.0761 0.9927
vn -0.2530 -0.5782 0.7756
vn 0.8885 0.0835 0.4512
vn 0.8731 -0.1980 0.4455
vn 0.7923 0.1224 -0.5977
vn -0.8615 -0.0936 -0.4991
vn 0.2157 0.2271 0.9497
vn -0.6338 -0.3727 0.6778
vn 0.2375 -0.6963 0.6773
vn 0.6284 0.1652 0.7601
vn -0.4195 0.1461 0.8959
vn 0.8302 -0.2105 -0.5162
vn -0.4125 0.1526 -0.8981
vn -0.4889 -0.1473 0.8598
vn 0.1047 0.1190 -0.9873
vn -0.2267 -0.2786 0.9333
vn 0.5039 -0.4949 0.7079
vn 0.2276 -0.4567 0.8600
usemtl lambert1
s off
f 49/1/1 43/2/1 48/3/1
f 60/4/2 39/5/2 59/6/2
f 59/6/3 39/5/3 49/1/3
s 1
f 12/7/4 40/8/5 9/9/6
f 34/10/7 19/11/8 16/12/9
f 16/12/9 2/13/10 34/10/7
f 16/12/9 19/11/8 43/2/11
f 50/14/12 35/15/13 55/16/14
f 36/17/15 35/15/13 14/18/16
f 35/15/13 36/17/15 56/19/17
f 18/20/18 14/18/16 52/21/19
f 14/18/16 50/14/12 51/22/20
f 37/23/21 61/24/22 42/25/23
f 41/26/24 9/9/6 40/8/5
f 11/27/25 9/28/6 10/29/26
f 11/27/25 12/30/4 9/28/6
f 38/31/27 40/8/5 12/7/4
f 2/13/10 41/32/24 40/8/5
f 2/13/10 13/33/28 41/32/24
f 13/33/28 2/13/10 44/34/29
f 3/35/30 61/36/22 45/37/31
f 61/36/22 3/35/30 42/38/23
f 39/5/32 44/34/29 43/2/11
f 49/1/33 39/5/32 43/2/11
f 13/33/28 44/34/29 39/5/32
f 45/37/31 61/36/22 49/1/33
f 2/13/10 40/8/5 34/10/7
f 2/13/10 16/12/9 44/34/29
f 17/39/34 15/40/35 45/37/31
f 3/35/30 45/37/31 15/40/35
f 44/34/29 16/12/9 43/2/11
f 17/39/34 45/37/31 48/3/36
f 3/35/30 40/8/5 38/31/27
f 34/10/7 40/8/5 3/35/30
f 19/11/8 48/3/36 43/2/11
f 54/41/37 50/14/12 55/16/14
f 50/14/12 14/18/16 35/15/13
f 18/20/18 36/17/15 14/18/16
f 46/42/38 12/30/4 11/27/25
f 46/43/38 33/44/39 12/7/4
f 47/45/40 33/44/39 46/43/38
f 47/45/40 42/38/23 3/35/30
f 3/35/30 38/31/27 47/45/40
f 3/35/30 15/40/35 34/10/7
f 15/40/35 17/39/34 34/10/7
f 19/11/8 34/10/7 17/39/34
f 19/11/8 17/39/34 48/3/36
f 48/3/36 45/37/31 49/1/33
f 1/46/41 51/22/20 50/14/12
f 52/21/19 14/18/16 62/47/42
f 62/47/42 14/18/16 51/22/20
f 20/48/43 21/49/44 7/50/45
f 20/48/43 7/50/45 58/51/46
f 4/52/47 20/48/43 58/51/46
f 4/52/47 58/51/46 8/53/48
f 5/54/49 4/52/47 8/53/48
f 8/53/48 30/55/50 5/54/49
f 6/56/51 5/54/49 30/55/50
f 30/55/50 31/57/52 6/56/51
f 32/58/53 7/50/45 21/49/44
f 24/59/54 22/60/55 23/61/56
f 8/53/48 58/51/46 52/21/19
f 58/51/46 18/20/18 52/21/19
f 62/47/42 57/62/57 25/63/58
f 1/46/41 50/14/12 53/64/59
f 53/64/59 50/14/12 54/41/37
f 60/4/60 55/16/14 32/58/53
f 35/15/13 32/58/53 55/16/14
f 35/15/13 56/19/17 32/58/53
f 11/27/25 10/29/26 4/52/47
f 11/27/25 4/52/47 5/54/49
f 11/27/25 5/54/49 28/65/61
f 31/57/52 61/66/22 6/56/51
f 61/66/22 37/67/21 6/56/51
f 49/1/33 61/66/22 31/57/52
f 49/1/33 31/57/52 59/6/62
f 13/68/28 60/4/60 32/58/53
f 60/4/60 13/68/28 39/5/32
f 41/69/24 13/68/28 21/49/44
f 13/68/28 32/58/53 21/49/44
f 41/69/24 21/49/44 9/28/6
f 7/50/45 24/59/54 58/51/46
f 7/50/45 56/19/17 22/60/55
f 24/59/54 7/50/45 22/60/55
f 18/20/18 23/61/56 36/17/15
f 22/60/55 36/17/15 23/61/56
f 22/60/55 56/19/17 36/17/15
f 58/51/46 24/59/54 18/20/18
f 23/61/56 18/20/18 24/59/54
f 30/55/50 25/63/58 57/62/57
f 25/63/58 30/55/50 8/53/48
f 52/21/19 62/47/42 25/63/58
f 52/21/19 25/63/58 8/53/48
f 51/22/20 1/46/41 62/47/42
f 1/46/41 30/55/50 57/62/57
f 57/62/57 62/47/42 1/46/41
f 10/29/26 26/70/63 27/71/64
f 26/70/63 10/29/26 9/28/6
f 9/28/6 21/49/44 26/70/63
f 4/52/47 27/71/64 20/48/43
f 26/70/63 20/48/43 27/71/64
f 20/48/43 26/70/63 21/49/44
f 27/71/64 4/52/47 10/29/26
f 11/27/25 28/65/61 46/42/38
f 46/42/38 28/65/61 29/72/65
f 46/42/38 29/72/65 37/67/21
f 29/72/65 5/54/49 6/56/51
f 5/54/49 29/72/65 28/65/61
f 6/56/51 37/67/21 29/72/65
f 1/46/41 53/64/59 31/57/52
f 30/55/50 1/46/41 31/57/52
f 54/41/37 31/57/52 53/64/59
f 54/41/37 59/6/62 31/57/52
f 54/41/37 60/4/60 59/6/62
f 60/4/60 54/41/37 55/16/14
f 56/19/17 7/50/45 32/58/53
f 38/31/27 12/7/4 33/44/39
f 47/45/40 38/31/27 33/44/39
f 46/43/38 37/23/21 42/38/23
f 42/38/23 47/45/40 46/43/38
